<svg width="72" height="72" viewBox="0 0 72 72" fill="none" xmlns="http://www.w3.org/2000/svg">
<rect width="72" height="72" rx="24" fill="#F7E3D4"/>
<path fill-rule="evenodd" clip-rule="evenodd" d="M40 28C40 28 36 26 32 28V42C32 42 33 39 35 39C37 39 36 39 36 39L41 41L40 28Z" fill="white"/>
<path d="M31.4348 41.9996C31.4348 46.538 27.7557 50.217 23.2174 50.217C18.6791 50.217 15 46.538 15 41.9996C15 37.4613 18.6791 33.7822 23.2174 33.7822C25.3968 33.7822 27.4869 34.648 29.028 36.189C30.569 37.7301 31.4348 39.8202 31.4348 41.9996" stroke="#E18D53" stroke-width="1.82609"/>
<path d="M16.0957 37.8913L23.7927 23.3648C24.5615 21.9094 26.0727 20.9991 27.7187 21V21C28.928 21.0014 30.0844 21.4962 30.9203 22.37C31.7562 23.2439 32.1993 24.421 32.147 25.6291L31.4348 42" stroke="#E18D53" stroke-width="1.82609"/>
<path d="M40.5652 41.9996C40.5652 46.538 44.2442 50.217 48.7826 50.217C53.3209 50.217 57 46.538 57 41.9996C57 37.4613 53.3209 33.7822 48.7826 33.7822C44.2442 33.7822 40.5652 37.4613 40.5652 41.9996" stroke="#E18D53" stroke-width="1.82609"/>
<path d="M55.8953 37.8914L48.2166 23.2827C47.429 21.8648 45.9306 20.9896 44.3088 21.0001V21.0001C43.0995 21.0015 41.9431 21.4963 41.1072 22.3701C40.2713 23.2439 39.8282 24.4211 39.8805 25.6292L40.5653 42.0001" stroke="#E18D53" stroke-width="1.82609"/>
<path d="M31.4348 42.0004C32.231 40.2198 34.0543 39.1259 36 39.2613C37.9458 39.1259 39.7691 40.2198 40.5652 42.0004" stroke="#E18D53" stroke-width="1.82609"/>
<path d="M31.9917 29.281C32.7901 27.8092 34.3301 26.8926 36.0045 26.8926C37.6789 26.8926 39.219 27.8092 40.0174 29.281" stroke="#E18D53" stroke-width="1.82609"/>
</svg>
