<svg width="72" height="72" viewBox="0 0 72 72" fill="none" xmlns="http://www.w3.org/2000/svg">
<rect width="72" height="72" rx="24" fill="#F3D6E5"/>
<circle cx="36.3829" cy="34.8509" r="3.06383" fill="white" stroke="#CE5B98" stroke-width="2"/>
<path d="M27.4979 51.625C19.0723 46.7229 16.2383 35.9229 21.217 27.4974C26.1957 19.0719 36.9191 16.2378 45.2681 21.2165C53.617 26.1953 56.5277 36.9187 51.5489 45.3442C50.017 48.025 47.7192 50.2463 45.0383 51.7782" stroke="#CE5B98" stroke-width="2"/>
<path d="M30.9446 45.6512C25.8893 42.5874 24.2042 36.0768 27.1914 30.9448C30.1787 25.8129 36.7659 24.2044 41.8978 27.1916C47.0297 30.1789 48.6383 36.8427 45.5744 41.898C44.6553 43.5065 43.2766 44.8087 41.668 45.7278" stroke="#CE5B98" stroke-width="2"/>
<path fill-rule="evenodd" clip-rule="evenodd" d="M38.5277 54.0001H34.1617L32.9362 44.0427C32.7064 42.2044 34.0085 40.5193 35.8468 40.2129C36 40.2129 36.1532 40.2129 36.3064 40.2129V40.2129C38.1447 40.2129 39.6766 41.7448 39.6766 43.5831C39.6766 43.7363 39.6766 43.8895 39.6766 44.0427L38.5277 54.0001Z" stroke="#CE5B98" stroke-width="2"/>
</svg>
