<svg width="72" height="72" viewBox="0 0 72 72" fill="none" xmlns="http://www.w3.org/2000/svg">
<rect width="72" height="72" rx="24" fill="#DAD5EF"/>
<circle cx="45" cy="28.608" r="3.4" fill="white" stroke="#6C57BE" stroke-width="1.73333"/>
<path fill-rule="evenodd" clip-rule="evenodd" d="M51.344 38.9117C55.6001 34.6563 55.9684 27.8785 52.1986 23.1869C48.4288 18.4952 41.7308 17.3954 36.6587 20.6352C31.5865 23.8751 29.7682 30.4147 32.44 35.8077L29.336 38.9117L28.8 42.6477L25.064 43.1837L24.536 46.9117L20.8 47.4477L18 50.2477L20.632 52.8797C21.3491 53.5969 22.3218 53.9998 23.336 53.9998C24.3502 53.9998 25.3229 53.5969 26.04 52.8797L37.776 41.1357C42.3077 43.3805 47.7661 42.4858 51.344 38.9117Z" stroke="#7460C2" stroke-width="1.6"/>
</svg>
